<svg xmlns="http://www.w3.org/2000/svg" width="693.4" height="711.96" viewBox="0 0 693.4 711.96"><g id="Layer_2" data-name="Layer 2"><path d="M-65,222.18c.64,8-1.15,20.92,39.9,35.31,14.42,5.06,24.43,11.28,31.9,17.63,14.81,12.61,13.79,18.6,31.89,33.08,9.94,7.95,13.17,8.26,19.26,15.38,8.84,10.33,10.22,21.56,13.71,27.93,9.06,16.5,13.65,66,32.91,75.21,37.12,17.67,5.35,61.33,23.23,90.93,16,26.51,25.83,32.91,28.24,48.48,5.27,34,3.47,62.53,1.84,106.39-2,54,8.37,69.75,10.89,69.91,4.53.28,58.63-2,79.84,0,15,1.44-38.54-36.9-36.63-78.17,1.2-25.91,3.68-58.7-21.08-83.47-11.75-11.74-12.45-27.8-16.39-42.47-4.3-16,5.26-25.29-11-43.34-19.38-21.5-10.84-32.7-7.34-52.55,7.53-42.72-12.66-52.67-16.49-57.34-33-40.36-16.55-41-23.07-57.44a93.19,93.19,0,0,0-18.78-30.75c-13.71-14.61-36.26-28.15-39-29.79s-9.08-4.8-14.58-11.66c-10.37-12.93-1.64-21.85-71.64-40.62-34.28-9.19-40.35-83.23-38.52-45.86C-65.54,176.94-66.31,205.94-65,222.18Z"/><path d="M-64.09,43.44c4,14.91,8.92,24,10.78,27.32,6.71,11.9,10.74,13.59,20.13,26.6C-17.56,119-22.78,122.49-11.61,134,1,147.09,8.25,143.15,22.9,157.75c7.56,7.53,5.09,8,18,25.89,7,9.68,18.71,25.73,36.67,41.69.43.39,6.52,5.29,18.69,15.1,28.41,22.89,29.34,23.52,31.63,26.6a99,99,0,0,1,6.15,9.21A140.67,140.67,0,0,1,145.84,303c4.55,14.87,13.15,13.12,22.29,53.92,4.63,20.69,42.48,33.54,48.88,57.51,5,18.53,61.38,90,67.58,109.28C298.18,565.88,300.94,618.25,322,656c25.7,46.1-2.88,88,25.88,87.92,15.62,0,51,26.91,69,12.73,34.19-26.86-37.31-50.66-67.51-157.32-19.59-69.19-15.83,1.73-70.53-153.25-17.25-48.89-25.89-75.32-39.35-94.9C224.88,329.89,196.14,310.77,185,295c-19.91-28-33-45.52-34.08-46.7a115.84,115.84,0,0,0-10.16-9.6h0c-10.85-8.4-19.51-9.58-34.41-24.91-16.64-17.12-28.86-37.93-25.17-41.7,2.08-2.12,7.06,3.37,19.42,5,15.2,2.05,19.56-4.66,31.63-2.15,9.93,2.06,10.66,7.36,23,14.38,14,7.93,23.24,6.93,35.95,10.06,23.46,5.77,30.26,18.6,49.61,30.92,32.65,20.78,46.59,5.44,90.58,20.13,46.9,15.65,58.33,37.8,88.43,53.2,43.95,22.47,96.48,11,99.21,0,1.39-5.58-10.2-9-41-35.23-27.3-23.28-27.52-28.55-41-33.79-21.35-8.32-26.08,2.88-52.49-5-20.62-6.18-22.11-14.32-46-20.85-20.22-5.53-22.62-.64-34.51-5-18.7-6.92-37.83-40.43-49.6-71.9-12.62-33.71-30.27-55.22-43.14-66.14-19-16.11-28.34-13.84-41.7-31.63-12.32-16.43-13.25-23-28.43-39.38-8.94-9.62-10.2-13.27-25.49-24.61-30.42-22.55-25.88-26-49-42.17C39.05-91.47,36-88.78,9.24-106.09-7-116.57-.91-125.61-18.8-148.51c-4.76-6.09-32.45-41.55-44.57-36-8,3.71-9.88,25.74-1.44,38.82,4.1,6.35,8.27,6.95,12.94,15.1,5.17,9,4.88,16.68,5.75,23,2,14.86,10.29,21,28.76,44.57,5.44,7,14.17,19.73,31.63,45.29,29.57,43.28,23.36,41.94,36,56.8,8.55,10.08,51,47.29,103.53,66.86,11.83,4.41,22,13.25,38.1,20.85,23.31,11,26.86,9.56,36.67,15.82,30.39,19.4,40.1,61,34.5,64.7-4,2.69-13.06-16.5-35.94-20.13-12.53-2-20.49,2.07-25.88-3.59-5.55-5.82.25-12.85-3.6-23-5.24-13.85-23-19.35-39.54-24.44-15.45-4.78-16.7-2.61-38.82-7.19a302.54,302.54,0,0,1-53.92-16.54c-16.41-6.8-24.62-10.2-31.64-16.53C19.52,83.15,22.52,74.65,8.52,63.57c-11.12-8.8-14.86-4.9-32.35-15.81-13.53-8.45-21.65-13.51-25.16-23-5.52-14.92,7.6-21.15,2.15-39.54C-49-22-51.34-22.28-59.06-40.67c-4.5-10.73-4.68-13-5.75-12.94C-70-53.39-75.64.6-64.09,43.44Z"/><path d="M-71.12,313.41C-76.81,307.1-46.2,367.59-35.63,384c21.38,33.14,30.58,39.88,46.5,64.15,25.09,38.23,23.36,53.67,43.3,96.21C85.69,611.57,131.29,661.08,136,658.19c3.18-2-33.68-48.11-33.49-93.44.1-23.49-17.23-44.79-24.24-65.32C59.38,444.24,30.73,446.48,15.69,408,1.25,371.14-14.78,376-71.12,313.41Z"/><path d="M-71.73,491.84c.38,41.44.56,62.17,5.69,78.42,14.05,44.52,12,65.14,55,86.67,38.53,19.26-5.14,97.93,25.75,97.93,46.78,0,59.61-1.61,82.94-.05,29.56,2-1.37-44.22-37.14-74.49-51.86-43.88-90.17-106-93-151.88C-37.15,454.69-51.19,398.28-66,398.28-93.55,398.28-71.85,478.5-71.73,491.84Z"/><path d="M483,435.46C328.36,287.85,757.28,797.93,545.4,814.63c-120.6,9.51,233.76,13.57,294.42,9.44,74.45-5.08-119.9-36.39-198.66-220.19C593.93,493.67,566.55,515.23,483,435.46Z"/><path d="M832.36,750.5c-9.51-16.91,5.26-29.43,5.5-67.61.08-12.84-1.43-37.19-39.9-112.81-27-53.08-41.57-81.73-68.79-117-40.07-51.84-73.45-128.88-110.06-157.21-74-57.26-116.45-20-133.45-65.66-13.94-37.42-21.46-42.44-38.53-63.67-33.8-42-81.37-6.07-132.07-47.77-34.89-28.7-14.48-60.95-55-111.44C216.55-46.76,90.14-112.29,92.52-119s68.91-5.5,184.47,70c54.47,35.58,60.4,82.21,126.12,132.08C443.34,113.57,465,89.7,507.67,145c110.06,142.5,112.82,89.57,114.19,88,1.71-1.9-10.26-33.87-44-129.33C556.44,43.18,450.92-23.69,474.65-105.44c23.63-81.4,7-142.49-107.86-143.53-53.76-.49-64.11-42.48-183.35-63.72-35-6.24-75.34-43.16-73.93-55.11,4-33.89,143.49-16.89,384.25,17.5,57.36,8.19,38.67,66,38.67,196.71,0,66,67.16,74.42,77.05,173.35,9.63,96.3,2.12,137.5,57.78,206.37,56.41,69.79,49.46,112.8,84.84,166,50.29,75.57,117.82,141.72,129.79,192.55C911.15,709,934.6,725.14,979.57,750.5,1014.18,770,853.78,788.63,832.36,750.5Z"/><path d="M226.7,270.67c-3.86,9.78,53.7,23.74,84.2,103.4,32,83.58,25.22,45,65.11,128.43,53.35,111.6,86.28,171.33,84.8,164.64-26.62-119.61-18.64-196.62-68-248-33.37-34.76-52.27-85.56-87.49-116C270.81,273.35,230.27,261.62,226.7,270.67Z"/><path d="M554,394.71c33.64,25.22,56,17.46,87.92,61.62,34,47.12,22.14,70.45,87.26,135.57,30.18,30.19-3.67-78.87-13.76-86.21-49-35.62-81-131.66-110.06-123.82-52.6,14.16-119-54.65-122.9-42.19C479.81,348.14,504.77,357.81,554,394.71Z"/><path d="M-80-337.57c-5,16.1,21,103,125.83,103,49.74,0,52.24,12.72,100.89,31.18C224.11-174,214-158.51,251.31-135.53,373.15-60.53,420.58-2.2,442.09,16.73,571.29,130.46,364.36-97,236.64-197.9,180.23-242.45,129-286.1,58.7-289.62-14.68-293.28-74.88-354.1-80-337.57Z"/><path d="M602.53-325.42c-16.3,24.56-7.47,59.48,10.19,129.32,10.8,42.7,19.72,77.93,43.73,119.68C686-25.06,707.4-17.69,722.88,29.69c11.31,34.59,21.78,44.23,10.89,77.67-23.31,71.56,16.08,137.15,73.36,180.49,28.26,21.38,13.45,19.28,51.37,152.62,12.84,45.16,94.39,83.16,104.56,145.63,7.82,48,36.66,69.8,52.66,139.3,9.94,43.14,15.22,65.1,30.78,84.16,47.88,58.66,151.92,61.19,161.54,39.13,8.27-19-60.75-38.84-106-122.73-26.74-49.54-12.51-60.86-43.41-163.75C1041.73,506,950.84,485.29,919,429.47c-29.75-52.22,1.84-82.16-53.2-161.79-39.33-56.91-84-13.77-51.36-109.16,17-49.73-25.09-61.42-38.06-96.83C755.69,5.1,773.54-11.47,750.83-53.43,727-97.43,701.4-90.26,677.73-136c-4.17-8.06-28.07-54.25-15.21-101.76,18.61-68.8,99.4-85.16,93.32-105.62C749-366.44,636.92-377.24,602.53-325.42Z"/></g></svg>