<svg xmlns="http://www.w3.org/2000/svg" width="944.69" height="757.51" viewBox="0 0 944.69 757.51"><g id="Layer_2" data-name="Layer 2"><path d="M-62.83,1086c-9.5-16.91,5.27-29.43,5.51-67.61.08-12.85-1.43-37.19-39.9-112.82-27-53.08-41.58-81.73-68.79-116.94-40.07-51.84-73.45-128.88-110.07-157.21-74-57.27-116.45-20-133.45-65.67C-423.47,528.31-431,523.29-448,502.07c-33.8-42.05-81.37-6.08-132.08-47.78-34.88-28.69-14.48-61-55-111.44C-678.64,288.72-805,223.18-802.66,216.46c2.44-6.88,68.9-5.5,184.47,70,54.46,35.58,60.4,82.21,126.11,132.07,40.23,30.53,61.89,6.66,104.56,61.91C-277.45,622.94-274.7,570-273.32,568.48c1.71-1.9-10.27-33.87-44-129.32-21.4-60.5-126.91-127.37-103.19-209.12,23.63-81.4,7-142.5-107.86-143.54C-582.16,86-592.51,44-711.75,22.78c-35-6.23-75.33-43.15-73.93-55.1,4-33.89,143.49-16.9,384.25,17.5,57.36,8.19,38.68,66,38.68,196.7,0,66,67.15,74.43,77,173.35,9.63,96.31,2.13,137.51,57.79,206.37,56.4,69.8,49.46,112.81,84.84,166C-92.8,803.14-25.26,869.3-13.3,920.13,16,1044.46,39.42,1060.62,84.38,1086,119,1105.5-41.41,1124.1-62.83,1086Z"/><path d="M-292.66,10.05c-16.3,24.56-7.47,59.48,10.2,129.33,10.8,42.7,19.71,77.92,43.73,119.68,29.53,51.35,50.94,58.72,66.43,106.1,11.3,34.6,21.78,44.24,10.89,77.67C-184.73,514.39-145.33,580-88,623.32-59.79,644.7-74.61,642.6-36.69,776c12.84,45.16,94.39,83.16,104.56,145.63,7.82,48,36.66,69.8,52.67,139.3,9.93,43.14,15.22,65.1,30.77,84.15,47.89,58.67,151.92,61.19,161.54,39.14,8.28-19-60.75-38.85-106-122.74-26.73-49.54-12.51-60.85-43.4-163.74C146.55,841.46,55.66,820.77,23.85,764.94c-29.76-52.21,1.83-82.16-53.2-161.78-39.33-56.91-84-13.78-51.36-109.17,17-49.73-25.1-61.41-38.06-96.82-20.72-56.59-2.88-73.17-25.59-115.12-23.81-44-49.43-36.83-73.09-82.56-4.17-8.06-28.08-54.25-15.22-101.75,18.62-68.8,99.4-85.16,93.33-105.63C-146.19-31-258.26-41.76-292.66,10.05Z"/><path d="M-101.43-18.5c-9.23,7.32,22.8,12.87,18.88,77.2-3.69,60.64-54.38,111.72-18.88,168.87C-60.22,293.89,37,318.16,25.15,302.78c-63.78-82.65-26.56-113.6-78.9-113.6-25,0,32.89-131,72.8-174.5C113.68-88.47,156-57.76,151.72-80.1,144.38-118.29-6.66-93.68-101.43-18.5Z"/><path d="M-94.63,335.94c-7.12,9.31,86.33,146.82,121.71,227.53,10.18,23.23,21.38,46,31.75,69.16,14.37,32.07,39.46,35.82,45.73,42.75,22.74,25.1,16,33.17,40.84,55.84,14.49,13.22,17,4.08,34.24,37.79,18,35.37,7.15,37.49,35.24,79.11,3.12,4.63,37,43.43,59.13,88.84,43.71,89.77,40.75,123.1,69.89,154.65,58.15,62.94,205.88,43.1,218,3.39,8.06-26.36-52.53-48.2-99.66-67.74-57.69-23.91-75.55-21.77-111.08-50.23-19.5-15.62-29.18-44.94-48.53-103.59-16.56-50.18-16.35-71.12-38.92-90.29-20.36-17.29-25.5-22-41.9-40.26-19.16-21.35-16.25-26.62-29.55-67-4.22-12.86-21.41-43.28-67.61-71.38-26.44-16.08-46.59-71.18-63.46-93.71C41.38,484.28,25.77,421.85-19,405.65-74.27,385.64-89.95,329.82-94.63,335.94Z"/><path d="M57.83,367.17C69.6,413.57,93.31,421,131.21,493.75c14.65,28.1,28,11.57,44.89,44.15,15.76,30.46,15.3,72.68,45,115.44,39,56.1,84.47,121.62,91.71,117.4,6.58-3.84-33.36-56.42-58.7-150.42C228,523.3,241.25,496.08,200,464.1c-29-22.47-45.56-28.1-77.91-52.9C66.66,368.74,70.73,285.4,61.5,286.46,55.32,287.17,47.2,325.27,57.83,367.17Z"/><path d="M71.54,2.5C58,32.11,73.45,67.37,78.88,79.8c11,25.22,19.66,23.32,33,49.53,11.14,21.87,9.34,31.45,20.18,88,7.77,40.6,27.83,60.9,34.52,78.88,11.44,30.81,6.48,41.19,31.51,78.88,14.5,21.83,48.47,73.5,73.38,135.75,17.77,44.41,33.74,18.49,55,78.65,9.23,26.08,11,51.59,29.35,147,10.1,52.53,93.56,122.9,119.24,163.26,29.89,47,48.94,29.38,71.54,58.7,34.93,45.3,25.38,74.47,66,124,15.95,19.43,35.9,43.07,67.87,48.41,34.84,5.83,70.51-12.32,69.71-22s-37.06-1.7-71.54-26.4c-31.26-22.39-44.23-59.55-51.37-80-13.59-39-6.5-54.15-23.84-71.54-18.2-18.24-31.94-7.47-53.2-23.84-33-25.4-13.92-62.09-45.86-97.23-24.4-26.84-41.58-12.1-71.54-40.35-31.74-29.93-39.4-71.88-44-97.23-9.29-50.88,6-58.39-7.34-100.89-11.68-37.16-33.43-63.35-40.35-71.54-21.85-25.83-32.06-25.47-51.37-47.69-18-20.77-25.47-41.36-40.35-82.55-20.85-57.72-33-91.26-33-137.58-.05-39.86,8.86-57.9-5.5-75.21-15.52-18.71-36.38-10.27-58.71-31.19-25.4-23.8-25.69-60.32-25.68-62.37.36-55.94,63.24-84.11,55-99C173.09-51.28,92.67-43.81,71.54,2.5Z"/><path d="M991.37,854.31c-4-18.9-8.92-30.44-10.78-34.63-6.71-15.08-10.74-17.23-20.13-33.73-15.61-27.41-10.4-31.85-21.57-46.48-12.64-16.55-19.86-11.57-34.51-30.08-7.56-9.54-5.09-10.17-18-32.81-7-12.28-18.71-32.63-36.67-52.86-.43-.49-6.52-6.7-18.69-19.14-28.4-29-29.34-29.81-31.63-33.72a130.25,130.25,0,0,1-6.14-11.67,206,206,0,0,1-11.84-33.9c-4.55-18.86-13.15-16.64-22.28-68.36-4.64-26.24-42.49-42.52-48.89-72.91-4.94-23.48-19.76-73.06-67.58-138.54-52-71.21-89.72-40.95-144.19-125.33C460.06,60.62,608.18-33.73,579.42-33.67c-15.62,0-51-34.12-69-16.15-34.2,34.06-102.2,234.18-50.89,293C518.6,310.88,562.66,233,648.44,343.92c39.35,50.89,25.89,95.47,39.35,120.3,14.61,26.95,43.35,51.19,54.54,71.13,19.91,35.45,33,57.7,34.08,59.21a132.81,132.81,0,0,0,10.16,12.16h0c10.85,10.65,19.51,12.15,34.42,31.58,16.63,21.7,28.85,48.08,25.16,52.87-2.08,2.69-7.06-4.27-19.41-6.38-15.21-2.6-19.57,5.91-31.64,2.73-9.93-2.61-10.66-9.34-23-18.23-14-10.06-23.23-8.79-36-12.76-23.46-7.32-30.26-23.58-49.61-39.19C653.9,591,640,610.44,596,591.82c-46.9-19.84-58.33-47.93-88.43-67.44-43.94-28.5-119.07-70.32-117.72-56.15,8.25,86.67,47.29,51.49,104.56,191.23,34.39,83.93,50.4-11,74.29-2.75a474.12,474.12,0,0,1,46.78,18.67c18.7,8.76,45.67,26.93,57.45,66.82,12.61,42.75,30.26,70,43.13,83.86,19,20.42,28.34,17.53,41.7,40.1C770.05,887,771,895.37,786.16,916.08c8.93,12.19,10.19,16.82,25.48,31.19,30.43,28.6,25.89,32.92,49,53.47,27.62,24.6,30.63,21.19,57.43,43.14,16.21,13.28,10.15,24.75,28,53.78,4.76,7.72,32.45,52.67,44.57,45.57,8-4.7,9.89-32.63,1.44-49.22-4.1-8-8.26-8.8-12.94-19.14-5.17-11.43-4.88-21.14-5.75-29.16-2-18.85-10.28-26.58-28.76-56.51-5.44-8.81-14.17-25-31.63-57.42-29.56-54.86-23.35-53.17-36-72-8.54-12.78-51-59.95-103.52-84.76-11.84-5.59-22-16.81-38.11-26.44-23.31-13.91-26.86-12.11-36.66-20.05-30.39-24.59-40.11-77.32-34.51-82,4-3.41,13.06,20.91,35.94,25.52,12.53,2.52,20.49-2.63,25.89,4.55,5.54,7.38-.25,16.29,3.59,29.17,5.24,17.56,23,24.52,39.54,31,15.45,6,16.7,3.3,38.82,9.11a256.85,256.85,0,0,1,53.92,21c16.41,8.63,24.62,12.94,31.64,21,14.17,16.2,11.16,27,25.16,41,11.12,11.16,14.86,6.21,32.35,20.05C964.65,859.55,972.76,866,976.27,878c5.52,18.91-7.59,26.8-2.15,50.12,2.12,9.12,4.5,9.5,12.22,32.81,4.5,13.6,4.69,16.47,5.75,16.41C997.27,977.07,1002.92,908.63,991.37,854.31Z"/><path d="M230.77-20.44c-8,6.65-1,30.81,12.84,79.14,9,31.43,15.17,46.32,31.18,91.72,26.67,75.62,24.45,76.38,33,89.89,20.45,32.24-.54,170.27,51.73,173.35,78,4.58,101.42-52.46,154.55-6,64.36,56.33,81,86.7,156.93,150,43.4,36.16,53.85,36.87,53.2,34.85C702.8,526.13,652.85,545.16,627,460.43c-10.78-35.31-9.87-46.07-31.19-55-20.12-8.45-59.94-31.19-97.22-71-54.83-58.49-80.52,31.09-104.2,1-47.69-60.54,5.14-92.32-26.19-145.54-4.8-8.15-50.6-22.32-34.71-57.86,27.89-62.37-4.06-79.24.37-109.3,3.77-25.59,60.22-101,60.17-120C393.9-138.22,248.93-35.58,230.77-20.44Z"/><path d="M598.93,801.17C603.15,845,633.55,911,651.21,934.39c32.23,42.59,43.29,32.19,59.16,68.73,9.27,21.33,6.83,6.76,20.64,23.68,20.7,25.38,52.17,35.72,55,31.65s-24.84-17.56-45.4-53.66c-18.26-32-12.16-29.94-28.89-60.54-16.28-29.74-26.75-24-48.16-49.09-51.45-60.38-52.28-190.29-50.9-164.15C613.06,738.15,595.52,765.73,598.93,801.17Z"/><path d="M598-2.1c-8.4,35.69,1,70.14,25.68,103,27.52,36.69,24,92.14,78.88,133.91,21.68,16.51,40.36,27.52,49.53,89.89,11.18,76,71.16,60.28,80.72,143.08,5.5,47.69,28.16,75.71,73.37,137.58,69.71,95.39,70.4,62.79,95.39,49.53,46.37-24.6-5.31-208-11-207.29-4,.52,17.58,90.91-18.34,111.9-18.91,11-45-2.25-47.7-3.67-27.19-14.31-36.65-45.73-47.69-84.38-13.21-46.23-6.12-57.43-22-78.88s-27.47-16.2-47.7-38.52c-7.71-8.51-13.51-17.54-34.85-80.72-20.62-61.06-22.93-75.55-40.36-91.71-16.76-15.56-22.36-28.33-38-44-22.65-22.81-31.74-32.9-39.08-73.38-6.13-33.78-2.85-53-7.34-69.14C633.89-54,661-65.2,654.88-69.71,649.67-73.56,608.46-46.44,598-2.1Z"/><path d="M711.75-2.1c-7.26,26.5,43.8,61.57,74.49,119.5,54.54,103,25.66,155.43,63.08,183.12,53,39.19,99.61,108.22,100.9,101.21s-24.74-103.82-40.36-143.08c-18.23-45.82,1.6-107.43-16.51-132.08-13.62-18.53-42-20-80.71-44C790.69,69,777,43.33,774.11,20.18c-5.31-42.23,26.7-68.66,18.35-77C782.53-66.83,723.14-43.72,711.75-2.1Z"/><path d="M871.36,31.72c33.64,25.22,56,17.46,87.92,61.62,34,47.12,22.14,70.46,87.27,135.58,30.18,30.18-3.67-78.88-13.76-86.22-49-35.62-81-131.66-110.07-123.82-52.6,14.16-119-54.65-122.9-42.19C797.18-14.85,822.15-5.18,871.36,31.72Z"/></g></svg>